<svg xmlns="http://www.w3.org/2000/svg" viewBox="0 0 512 512" role="img" aria-label="IV inventory icon">
  <defs>
    <linearGradient id="bg" x1="0" y1="0" x2="1" y2="1">
      <stop offset="0" stop-color="#ffb547"/>
      <stop offset="1" stop-color="#f07a00"/>
    </linearGradient>
    <linearGradient id="fluid" x1="0" y1="0" x2="1" y2="1">
      <stop offset="0" stop-color="#ffd896"/>
      <stop offset="1" stop-color="#ffc266"/>
    </linearGradient>
    <filter id="s" x="-20%" y="-20%" width="140%" height="140%">
      <feDropShadow dx="0" dy="8" stdDeviation="8" flood-color="#8a3f00" flood-opacity="0.28"/>
    </filter>
  </defs>

  <rect x="18" y="18" width="476" height="476" rx="78" fill="url(#bg)"/>
  <path d="M86 86h340c16 0 28 12 28 28v284L304 248z" fill="#ffd795" opacity="0.24"/>

  <g filter="url(#s)">
    <path d="M213 156h86a24 24 0 0 1 24 24v18h8a16 16 0 0 1 16 16v128c0 40-22 70-58 82v42h-64v-42c-36-12-58-42-58-82V214a16 16 0 0 1 16-16h8v-18a24 24 0 0 1 24-24z" fill="#ffffff"/>
    <rect x="216" y="176" width="80" height="14" rx="7" fill="#e47b00" opacity="0.95"/>
    <path d="M214 246c28-10 66 12 102 0v74c0 12-10 22-22 22h-58c-12 0-22-10-22-22z" fill="url(#fluid)"/>
    <rect x="196" y="248" width="10" height="96" rx="5" fill="#fff5e6"/>
    <rect x="250" y="130" width="12" height="26" rx="6" fill="#ffffff"/>
    <path d="M188 470h140v14H188z" fill="#ffffff" opacity="0.95"/>
    <rect x="250" y="450" width="14" height="20" fill="#ffffff"/>
  </g>

  <g filter="url(#s)">
    <circle cx="344" cy="372" r="58" fill="#ffbe2f"/>
    <path d="M318 371l20 20 33-36" fill="none" stroke="#ffffff" stroke-width="14" stroke-linecap="round" stroke-linejoin="round"/>
  </g>
</svg>
